<svg width="2000" height="2000" xmlns="http://www.w3.org/2000/svg"><path fill="#f0fafc" d="M0 0h2000v2000H0z"/><path d="M0 100h0c38.135-10.653 76.27-21.305 114-18 37.73 3.305 75.053 20.568 111 28 35.947 7.432 70.519 5.033 109-2 38.481-7.033 80.873-18.7 115-22 34.127-3.3 59.991 1.766 96 8s82.162 13.637 120 9c37.838-4.637 67.36-21.315 106-21 38.64.315 86.401 17.624 123 23 36.599 5.376 62.037-1.18 99-3s85.451 1.1 122-4c36.549-5.1 61.159-18.217 98-15 36.841 3.217 85.915 22.767 125 30 39.085 7.233 68.183 2.149 105 0 36.817-2.149 81.355-1.361 118 0 36.645 1.361 65.397 3.296 100 4 34.603.704 75.059.178 110 0s64.369-.01 109-8 104.466-24.14 127-27c22.534-2.86 7.767 7.57 33 18" fill="none" stroke="#98dbe9" stroke-width="8" stroke-linecap="round"/><path d="M0 200h0c37.348 4.125 74.696 8.25 114 9s80.563-1.878 115-5 62.053-6.739 97-6c34.947.739 77.225 5.834 117 5 39.775-.834 77.045-7.596 114-4s73.594 17.55 112 17c38.406-.55 78.578-15.601 113-20 34.422-4.399 63.094 1.856 98 0s76.046-11.823 118-12c41.954-.177 84.722 9.437 122 17 37.278 7.563 69.066 13.076 106 8 36.934-5.076 79.015-20.741 115-20 35.985.741 65.873 17.889 102 20 36.127 2.111 78.492-10.815 115-12 36.508-1.185 67.158 9.37 105 12 37.842 2.63 82.875-2.666 120-6s66.341-4.705 107-6c40.659-1.295 92.76-2.513 113-2 20.24.513 8.62 2.756 37 5" fill="none" stroke="#d5f0f6" stroke-width="8" stroke-linecap="round"/><path d="M0 300h0c31.73-10.89 63.46-21.78 103-17 39.54 4.78 86.893 25.23 127 30s72.97-6.142 108-13 72.228-9.664 109-9c36.772.664 73.119 4.796 111 2 37.881-2.796 77.296-12.522 115-8 37.704 4.522 73.697 23.292 110 26 36.303 2.708 72.917-10.647 111-16s77.634-2.704 113-5 66.548-9.538 102-5 75.174 20.855 113 24c37.826 3.145 73.757-6.88 109-8 35.243-1.12 69.8 6.669 107 10 37.2 3.331 77.044 2.206 115 2 37.956-.206 74.024.505 109-2s68.86-8.228 108-14 83.538-11.592 126-13c42.462-1.408 82.99 1.598 100 5 17.01 3.402 10.505 7.201 44 11" fill="none" stroke="#d0eef5" stroke-width="8" stroke-linecap="round"/><path d="M0 400h0c37.4 3.132 74.8 6.263 113 6 38.2-.263 77.2-3.92 114-1s71.402 12.42 110 9 81.192-19.76 116-27c34.808-7.24 61.829-5.378 98 2s81.492 20.27 123 24c41.508 3.73 79.204-1.706 112-7 32.796-5.294 60.694-10.448 97-15s81.02-8.503 118-5c36.98 3.503 66.226 14.46 100 15 33.774.54 72.078-9.34 113-10 40.922-.66 84.464 7.896 120 8 35.536.104 63.067-8.246 102-5 38.933 3.246 89.267 18.088 127 20 37.733 1.912 62.865-9.106 99-16s83.273-9.662 119-12c35.727-2.338 60.042-4.245 102 1s101.56 17.641 124 21c22.44 3.359 7.72-2.32 33-8" fill="none" stroke="#90d8e7" stroke-width="8" stroke-linecap="round"/><path d="M0 500h0c42.91 3.063 85.821 6.127 120 8 34.179 1.873 59.626 2.557 93 5s74.676 6.645 112 1 70.67-21.137 109-23c38.33-1.863 81.645 9.902 121 13 39.355 3.098 74.752-2.47 112-1 37.248 1.47 76.347 9.977 115 11 38.653 1.023 76.86-5.44 112-10s67.213-7.219 105-11c37.787-3.781 81.286-8.685 120-6 38.714 2.685 72.642 12.96 109 15 36.358 2.04 75.147-4.156 112-7 36.853-2.844 71.77-2.337 106 1 34.23 3.337 67.771 9.502 104 7 36.229-2.502 75.144-13.673 114-11 38.856 2.673 77.652 19.19 113 23 35.348 3.81 67.248-5.09 111-14 43.752-8.91 99.358-17.831 120-18 20.642-.169 6.321 8.416 32 17" fill="none" stroke="#afe3ee" stroke-width="8" stroke-linecap="round"/><path d="M0 600h0c34.33-9.542 68.658-19.084 105-13s74.696 27.795 112 29c37.304 1.205 73.559-18.095 114-25 40.441-6.905 85.07-1.416 122 7 36.93 8.416 66.163 19.76 103 16 36.837-3.76 81.278-22.621 116-23 34.722-.379 59.725 17.725 96 17 36.275-.725 83.824-20.278 122-23 38.176-2.722 66.98 11.387 101 17 34.02 5.613 73.255 2.73 116 3 42.745.27 89 3.696 124 7s58.745 6.486 95 5c36.255-1.486 85.02-7.64 126-11 40.98-3.36 74.172-3.925 107-4 32.828-.075 65.29.339 101-1 35.71-1.339 74.664-4.431 114-6s79.052-1.615 123-3c43.948-1.385 92.128-4.11 110-3 17.872 1.11 5.436 6.055 33 11" fill="none" stroke="#88d5e5" stroke-width="8" stroke-linecap="round"/><path d="M0 700h0c32.987 4.961 65.973 9.922 105 6 39.027-3.922 84.094-16.728 121-19 36.906-2.272 65.652 5.989 99 10s71.299 3.772 109 7c37.701 3.228 75.153 9.924 116 6 40.847-3.924 85.088-18.468 121-25 35.912-6.532 63.495-5.051 101 3s84.932 22.673 121 21c36.068-1.673 60.779-19.64 98-25 37.221-5.36 86.953 1.886 126 10s67.407 17.097 101 21c33.593 3.903 72.417 2.728 112 1 39.583-1.728 79.925-4.009 118-6 38.075-1.991 73.884-3.693 110-8s72.54-11.22 111-15c38.46-3.78 78.959-4.425 114-3 35.041 1.425 64.627 4.922 104 9 39.373 4.078 88.535 8.737 109 10 20.465 1.263 12.232-.868 44-3" fill="none" stroke="#96dae8" stroke-width="8" stroke-linecap="round"/><path d="M0 800h0c34.263-10.49 68.525-20.98 108-17 39.475 3.98 84.16 22.43 123 29s71.831 1.261 107-2 72.513-4.474 109-9c36.487-4.526 72.115-12.365 110-14 37.885-1.635 78.026 2.935 115 11 36.974 8.065 70.781 19.626 108 19 37.219-.626 77.849-13.44 116-22 38.151-8.56 73.823-12.87 108-9 34.177 3.87 66.858 15.918 102 15 35.142-.918 72.744-14.803 114-14 41.256.803 86.165 16.293 121 20 34.835 3.707 59.597-4.37 96-8s84.446-2.812 122 0 64.618 7.618 100 4c35.382-3.618 79.082-15.66 117-18 37.918-2.34 70.055 5.024 110 12 39.945 6.976 87.699 13.565 108 14 20.301.435 13.15-5.282 46-11" fill="none" stroke="#a4dfeb" stroke-width="8" stroke-linecap="round"/><path d="M0 900h0c32.173-1.296 64.346-2.593 101-5 36.654-2.407 77.787-5.926 118-7 40.213-1.074 79.504.296 117 2 37.496 1.704 73.195 3.742 108 4 34.805.258 68.714-1.265 108-5 39.286-3.735 83.949-9.682 121-4s66.492 22.994 103 23c36.508.006 80.085-17.293 115-22 34.915-4.707 61.17 3.177 99 12s87.239 18.584 125 17c37.761-1.584 63.875-14.512 98-22 34.125-7.488 76.26-9.536 116-3 39.74 6.536 77.082 21.657 116 20 38.918-1.657 79.41-20.093 119-21s78.277 15.716 112 19c33.723 3.284 62.483-6.77 95-9 32.517-2.23 68.793 3.36 112 0 43.207-3.36 93.345-15.675 114-17 20.655-1.325 11.828 8.337 43 18" fill="none" stroke="#81d3e4" stroke-width="8" stroke-linecap="round"/><path d="M0 1000h0c35.558-2.44 71.115-4.882 108-7 36.885-2.118 75.097-3.914 114-4 38.903-.086 78.497 1.537 117 6s75.914 11.767 109 16c33.086 4.233 61.848 5.395 100 3 38.152-2.395 85.693-8.347 126-13 40.307-4.653 73.381-8.005 109-10 35.619-1.995 73.782-2.631 109-1 35.218 1.631 67.49 5.53 105 6 37.51.47 80.259-2.489 119-6s73.475-7.575 111-7c37.525.575 77.841 5.79 113 12 35.159 6.21 65.16 13.415 100 18 34.84 4.585 74.517 6.55 114 1 39.483-5.55 78.773-18.614 118-21 39.227-2.386 78.39 5.907 114 9s67.664.987 109-1 91.953-3.853 111-4c19.047-.147 6.523 1.427 34 3" fill="none" stroke="#cbedf4" stroke-width="8" stroke-linecap="round"/><path d="M0 1100h0c38.007-3.55 76.013-7.1 112-3 35.987 4.1 69.954 15.85 106 17 36.046 1.15 74.172-8.302 114-9 39.828-.698 81.359 7.356 120 4 38.641-3.356 74.392-18.123 108-19 33.608-.877 65.073 12.137 103 19 37.927 6.863 82.317 7.574 120 7 37.683-.574 68.66-2.432 106-3 37.34-.568 81.042.155 120-7s73.173-22.189 105-21c31.827 1.189 61.265 18.6 100 25 38.735 6.4 86.768 1.79 126-3s69.664-9.758 102-8c32.336 1.758 66.577 10.24 107 14s87.028 2.795 124 0c36.972-2.795 64.312-7.42 97-12s70.724-9.118 116-10c45.276-.882 97.793 1.89 118 4 20.207 2.11 8.103 3.555 36 5" fill="none" stroke="#96dae8" stroke-width="8" stroke-linecap="round"/><path d="M0 1200h0c40.958-1.483 81.916-2.967 120-5s73.294-4.616 110 0 74.907 16.43 110 21 67.08 1.895 104-4 78.777-15.01 118-16c39.223-.99 75.814 6.143 113 4 37.186-2.143 74.968-13.561 111-12s70.314 16.103 104 21c33.686 4.897 66.775.15 106-5 39.225-5.15 84.586-10.703 122-13 37.414-2.297 66.88-1.337 101-3 34.12-1.663 72.894-5.95 111-5 38.106.95 75.542 7.136 112 8 36.458.864 71.936-3.595 108-1 36.064 2.595 72.713 12.242 111 11 38.287-1.242 78.21-13.374 114-18 35.79-4.626 67.443-1.745 108 7 40.557 8.745 90.016 23.356 111 26 20.984 2.644 13.492-6.678 46-16" fill="none" stroke="#c7ebf3" stroke-width="8" stroke-linecap="round"/><path d="M0 1300h0c31.575 2.55 63.15 5.102 102 3 38.85-2.102 84.975-8.857 127-7 42.025 1.857 79.95 12.324 112 15s58.225-2.44 96-7c37.775-4.56 87.15-8.563 128-13 40.85-4.437 73.173-9.307 108-8 34.827 1.307 72.157 8.793 106 14 33.843 5.207 64.2 8.135 101 11s80.04 5.666 119 2c38.96-3.666 73.637-13.797 108-20 34.363-6.203 68.413-8.476 106-4 37.587 4.476 78.713 15.7 119 22 40.287 6.3 79.737 7.676 118 9 38.263 1.324 75.34 2.597 113-4 37.66-6.597 75.906-21.063 110-23 34.094-1.937 64.035 8.656 100 15 35.965 6.344 77.952 8.439 123 10s93.157 2.589 111 0c17.843-2.589 5.422-8.794 33-15" fill="none" stroke="#ccedf4" stroke-width="8" stroke-linecap="round"/><path d="M0 1400h0c34.196-7.543 68.391-15.086 105-9 36.609 6.086 75.63 25.8 112 24 36.37-1.8 70.087-25.114 107-25 36.913.114 77.023 23.655 117 26 39.977 2.345 79.822-16.506 119-25s77.688-6.63 113-7c35.312-.37 67.424-2.977 102 0 34.576 2.977 71.616 11.538 110 12 38.384.462 78.113-7.174 118-5 39.887 2.174 79.934 14.158 113 12 33.066-2.158 59.153-18.457 96-16 36.847 2.457 84.456 23.67 126 26 41.544 2.33 77.024-14.22 110-16 32.976-1.78 63.449 11.21 99 12 35.551.79 76.18-10.62 117-15 40.82-4.38 81.828-1.73 115 4s58.508 14.543 101 18c42.492 3.457 102.14 1.56 125-2s8.93-8.78 35-14" fill="none" stroke="#bbe7f0" stroke-width="8" stroke-linecap="round"/><path d="M0 1500h0c38.53 2.848 77.06 5.697 114 10s72.292 10.062 111 5c38.708-5.062 80.772-20.944 117-26 36.228-5.056 66.62.712 100 7 33.38 6.288 69.75 13.094 106 10 36.25-3.094 72.384-16.088 112-17 39.616-.912 82.715 10.257 120 10 37.285-.257 68.756-11.94 104-10 35.244 1.94 74.263 17.5 111 22 36.737 4.5 71.194-2.063 111-3 39.806-.937 84.96 3.75 123 3 38.04-.75 68.965-6.937 105-10 36.035-3.063 77.18-3 114-6 36.82-3 69.315-9.059 104-8 34.685 1.059 71.56 9.237 112 10 40.44.763 84.448-5.888 121-3 36.552 2.888 65.649 15.316 103 18 37.351 2.684 82.958-4.376 103-8 20.042-3.624 14.521-3.812 49-4" fill="none" stroke="#7fd2e3" stroke-width="8" stroke-linecap="round"/><path d="M0 1600h0c38.733-5.894 77.465-11.787 115-15 37.535-3.213 73.872-3.745 109 5 35.128 8.745 69.047 26.767 107 26 37.953-.767 79.942-20.322 119-23 39.058-2.678 75.186 11.52 112 13 36.814 1.48 74.313-9.76 111-8 36.687 1.76 72.562 16.517 110 18 37.438 1.483 76.44-10.308 111-18s64.676-11.287 101-7c36.324 4.287 78.856 16.454 119 19 40.144 2.546 77.9-4.53 112-6 34.1-1.47 64.543 2.663 103 6 38.457 3.337 84.928 5.878 121-2s61.744-26.176 97-24c35.256 2.176 80.096 24.826 122 31 41.904 6.174 80.871-4.129 117-7 36.129-2.871 69.42 1.688 110 0s88.452-9.625 107-12c18.548-2.375 7.774.813 37 4" fill="none" stroke="#91d8e7" stroke-width="8" stroke-linecap="round"/><path d="M0 1700h0c38.735-1.511 77.47-3.022 115 2s73.852 16.578 108 14c34.148-2.578 66.12-19.29 103-24 36.88-4.71 78.665 2.582 120 4 41.335 1.418 82.22-3.039 117 2s63.458 19.572 101 18c37.542-1.572 83.95-19.25 123-27s70.745-5.575 107-5c36.255.575 77.07-.45 115 6 37.93 6.45 72.978 20.373 109 20 36.022-.373 73.018-15.044 106-15 32.982.044 61.951 14.803 99 14 37.049-.803 82.178-17.166 121-20 38.822-2.834 71.336 7.862 110 11s83.476-1.28 119-6 61.759-9.74 96-10c34.241-.26 76.488 4.237 120 11s88.29 15.79 107 17c18.71 1.21 11.355-5.395 44-12" fill="none" stroke="#afe3ee" stroke-width="8" stroke-linecap="round"/><path d="M0 1800h0c40.362-3.21 80.724-6.419 118-1 37.276 5.419 71.467 19.466 105 17 33.533-2.466 66.407-21.445 106-25 39.593-3.555 85.906 8.314 123 7 37.094-1.314 64.971-15.813 102-16 37.029-.187 83.21 13.936 119 18 35.79 4.064 61.188-1.933 96 0s79.038 11.794 120 16c40.962 4.206 78.66 2.756 117-2s77.322-12.82 113-19 68.052-10.478 101-11c32.948-.522 66.472 2.732 107 9 40.528 6.268 88.061 15.55 127 15 38.939-.55 69.283-10.934 102-10 32.717.934 67.805 13.184 107 18 39.195 4.816 82.495 2.198 121-4 38.505-6.198 72.213-15.976 112-17 39.787-1.024 85.653 6.708 104 9 18.347 2.292 9.173-.854 40-4" fill="none" stroke="#d3eff5" stroke-width="8" stroke-linecap="round"/><path d="M0 1900h0c40.258 6.04 80.516 12.081 116 11 35.484-1.081 66.194-9.285 102-10 35.806-.715 76.709 6.057 114 4 37.291-2.057 70.972-12.944 105-12 34.028.944 68.403 13.72 109 15 40.597 1.28 87.414-8.934 128-10 40.586-1.066 74.939 7.017 111 6 36.061-1.017 73.83-11.135 111-11 37.17.135 73.739 10.522 109 8 35.261-2.522 69.215-17.952 107-15 37.785 2.952 79.403 24.287 116 28 36.597 3.713 68.173-10.197 102-19s69.906-12.5 108-11c38.094 1.5 78.203 8.198 118 8 39.797-.198 79.283-7.29 118-8s76.666 4.964 108 5c31.334.036 56.051-5.567 98-1s101.128 19.305 124 23c22.872 3.695 9.436-3.652 36-11" fill="none" stroke="#a2deeb" stroke-width="8" stroke-linecap="round"/></svg>